<svg width="95" height="41" viewBox="0 0 95 41" fill="none" xmlns="http://www.w3.org/2000/svg">
<path d="M27 16H52.5L48.3288 40.6083H20.8407C17.7265 40.6083 14.8719 40.1691 12.2768 39.2908C9.72165 38.3725 7.52579 37.1349 5.68926 35.5778C3.89265 33.9808 2.49529 32.1044 1.49717 29.9484C0.499057 27.7925 0 25.4569 0 22.9417C0 19.6678 0.738605 16.6535 2.21582 13.8987C3.69303 11.1439 5.68926 8.78838 8.20451 6.83208C10.7198 4.83585 13.6742 3.29875 17.0678 2.22078C20.4614 1.10289 24.0746 0.543945 27.9073 0.543945H56.5932L46.7118 10.9643H26.0508C24.2143 10.9643 22.4576 11.2437 20.7808 11.8027C19.1439 12.3616 17.7066 13.1402 16.4689 14.1383C15.2312 15.1364 14.2331 16.3142 13.4746 17.6716C12.7559 19.0291 12.3966 20.5063 12.3966 22.1032C12.3966 24.6185 13.3149 26.6147 15.1514 28.0919C17.0279 29.5692 18.8859 30 22 30H36L40 25H18L27 16Z" fill="url(#paint0_linear_221_99)"/>
<path d="M58.7761 10.9477H38.6251V0.488037L64 0.500034L58.7761 10.9477ZM40 25L47 16H54.5C57.6858 16 60.3593 16.0282 62.6047 18.542C64.8501 21.0559 65.9728 24.0839 65.9728 27.6261C65.9728 31.1684 64.8501 34.1964 62.6047 36.7103C60.3593 39.2241 57.808 40.6083 54.6223 40.6083H38.6251V30.4828H53.0186C53.8055 30.4828 54.4772 30.2066 55.0337 29.6544C55.6095 29.083 55.8973 28.407 55.8973 27.6261C55.8973 26.8453 55.6095 26.1788 55.0337 25.6265C54.4772 25.0552 53.8055 25 53.0186 25H40Z" fill="#04AFC0"/>
<path d="M87.151 10.9477H67V0.488037L92.3749 0.500034L87.151 10.9477ZM68.3749 25L75.3749 16H82.8749C86.0607 16 88.7343 16.0282 90.9797 18.542C93.2251 21.0559 94.3478 24.0839 94.3478 27.6261C94.3478 31.1684 93.2251 34.1964 90.9797 36.7103C88.7343 39.2241 86.183 40.6083 82.9972 40.6083H67V30.4828H81.3936C82.1804 30.4828 82.8521 30.2066 83.4087 29.6544C83.9844 29.083 84.2723 28.407 84.2723 27.6261C84.2723 26.8453 83.9844 26.1788 83.4087 25.6265C82.8521 25.0552 82.1804 25 81.3936 25H68.3749Z" fill="#04AFC0"/>
<defs>
<linearGradient id="paint0_linear_221_99" x1="56.4681" y1="20.3042" x2="-3.52137" y2="20.3042" gradientUnits="userSpaceOnUse">
<stop stop-color="#4D4D4D"/>
<stop offset="1" stop-color="white"/>
</linearGradient>
</defs>
</svg>
